<svg width="64" height="46" viewBox="0 0 64 46" fill="none" xmlns="http://www.w3.org/2000/svg">
<path d="M9.23828 22.8147L58.5195 11.5747L63.3005 32.8862L14.0194 44.1262L9.23828 22.8147Z" fill="#9AF6C1"/>
<path d="M22.9043 41.0433L20.71 41.5437L18.1289 30.0389L20.4594 29.5073L21.5274 34.2679C21.6819 33.8693 21.9633 33.5163 22.3716 33.2093C22.7878 32.8898 23.2682 32.668 23.813 32.5437C24.5192 32.3827 25.1684 32.4164 25.7605 32.6449C26.3627 32.8711 26.8747 33.2622 27.2964 33.8182C27.718 34.3744 28.0225 35.0695 28.2096 35.9037C28.3853 36.6868 28.3841 37.4144 28.206 38.0859C28.0357 38.7447 27.7096 39.3003 27.2278 39.7523C26.756 40.2023 26.162 40.5089 25.4457 40.6722C24.9211 40.7919 24.4179 40.7942 23.9362 40.6796C23.4622 40.5526 23.0856 40.3391 22.8062 40.039L22.9043 41.0433ZM22.1895 37.1482C22.274 37.5247 22.4249 37.8433 22.6424 38.1038C22.8678 38.3518 23.1349 38.5259 23.4438 38.6267C23.7605 38.7148 24.1005 38.7175 24.4636 38.6345C24.8369 38.5494 25.1365 38.3955 25.3623 38.173C25.5981 37.9481 25.7547 37.6772 25.8321 37.3603C25.9195 37.0407 25.921 36.6928 25.8366 36.3167C25.7521 35.9403 25.6023 35.6267 25.3871 35.3767C25.1819 35.1239 24.9249 34.9475 24.616 34.8466C24.3172 34.7438 23.9811 34.7347 23.6079 34.8201C23.2447 34.9028 22.9401 35.0577 22.6941 35.2849C22.456 35.4997 22.2881 35.7679 22.1906 36.0895C22.1032 36.4088 22.1028 36.7617 22.1895 37.1482Z" fill="#27104A"/>
<path d="M29.1223 35.5999C28.942 34.7963 28.9611 34.0542 29.1795 33.3736C29.4058 32.6804 29.794 32.0946 30.3442 31.6163C30.9045 31.1356 31.5882 30.8033 32.3953 30.6192C33.2024 30.4351 33.9563 30.4396 34.6573 30.6326C35.3579 30.8256 35.9533 31.187 36.4433 31.7168C36.9413 32.2342 37.2803 32.8946 37.4606 33.6982C37.6409 34.5018 37.6166 35.2453 37.3883 35.9282C37.1696 36.6088 36.7853 37.1883 36.2353 37.6669C35.6849 38.1451 35.0063 38.4762 34.1993 38.6604C33.3923 38.8446 32.6332 38.8412 31.9223 38.6503C31.2215 38.4574 30.6222 38.1021 30.1243 37.5849C29.6366 37.0653 29.3026 36.4035 29.1223 35.5999ZM31.4645 35.0497C31.5512 35.4362 31.7033 35.7599 31.9208 36.0203C32.1461 36.2684 32.4132 36.4428 32.7222 36.5433C33.0288 36.6337 33.3636 36.6374 33.7269 36.5547C34.0899 36.472 34.3906 36.3232 34.6289 36.1084C34.8649 35.8835 35.0266 35.6113 35.1139 35.292C35.1989 34.9626 35.1983 34.6044 35.1116 34.2178C35.0249 33.8313 34.8739 33.513 34.6586 33.2627C34.4433 33.0124 34.1826 32.842 33.8759 32.7515C33.5669 32.6509 33.2309 32.642 32.8677 32.7248C32.5045 32.8077 32.2049 32.9615 31.9691 33.1864C31.7309 33.4011 31.5631 33.6693 31.4655 33.991C31.3781 34.3103 31.3777 34.6632 31.4645 35.0497Z" fill="#27104A"/>
<path d="M42.0019 36.8957C41.2049 37.0775 40.5202 37.0036 39.9479 36.6745C39.3832 36.3327 39.0179 35.7906 38.8512 35.0478C38.6936 34.3461 38.8052 33.7323 39.1859 33.2073C39.5766 32.6798 40.2179 32.2768 41.1099 31.9986L43.1909 31.3475L43.1636 31.2254C43.1066 30.9711 43.0092 30.7741 42.8719 30.6343C42.7322 30.4844 42.5572 30.3906 42.3472 30.353C42.1452 30.3028 41.9029 30.31 41.6206 30.3744C41.1262 30.4872 40.7682 30.665 40.5472 30.9079C40.3359 31.1486 40.2692 31.4418 40.3469 31.7877L38.4099 32.2295C38.2796 31.6496 38.3129 31.1127 38.5096 30.6188C38.7066 30.1248 39.0459 29.6999 39.5282 29.344C40.0206 28.9857 40.6246 28.7249 41.3409 28.5616C42.0776 28.3936 42.7276 28.3843 43.2912 28.5338C43.8652 28.6809 44.3402 28.9788 44.7169 29.4276C45.1032 29.8741 45.3786 30.4636 45.5429 31.196L46.5426 35.6515L44.4846 36.121L44.1072 35.1483C44.0639 35.5217 43.8412 35.8773 43.4399 36.2148C43.0459 36.5398 42.5666 36.7666 42.0019 36.8957ZM42.4286 34.9699C42.8726 34.8687 43.2119 34.6788 43.4462 34.4008C43.6786 34.1125 43.7459 33.7498 43.6476 33.3124L43.5552 32.9004L42.3989 33.2764C41.9036 33.4322 41.5646 33.6003 41.3826 33.7807C41.2082 33.9491 41.1482 34.1552 41.2032 34.3992C41.2646 34.6738 41.3962 34.8579 41.5972 34.951C41.7986 35.0441 42.0756 35.0502 42.4286 34.9699Z" fill="#27104A"/>
<path d="M51.7101 26.4559L52.2065 28.6683L51.4651 28.8375C50.7991 28.9894 50.3111 29.2717 50.0008 29.6847C49.7005 30.0953 49.6348 30.6771 49.8035 31.4298L50.5465 34.7408L48.2158 35.2726L46.5078 27.6584L48.7021 27.158L49.2498 28.7492L49.0381 28.7975C49.0248 28.2659 49.1585 27.7971 49.4385 27.391C49.7261 26.9725 50.1778 26.6931 50.7935 26.5527C50.9345 26.5205 51.0781 26.4984 51.2238 26.4866C51.3775 26.4622 51.5395 26.452 51.7101 26.4559Z" fill="#27104A"/>
<path d="M57.6004 33.3364C56.8741 33.502 56.2071 33.4831 55.5994 33.2795C54.9917 33.076 54.4704 32.7137 54.0354 32.1927C53.6081 31.6593 53.3044 30.9908 53.1241 30.1872C52.9414 29.3734 52.9331 28.6268 53.0987 27.9474C53.2621 27.2579 53.5827 26.6769 54.0597 26.2045C54.5474 25.7298 55.1744 25.405 55.9411 25.2301C56.4151 25.122 56.8734 25.1083 57.3157 25.1892C57.7684 25.2678 58.1374 25.4242 58.4231 25.6584L57.3964 21.0809L59.7267 20.5493L62.3077 32.0542L60.1134 32.5547L59.7734 31.6058C59.6491 31.9977 59.3904 32.3561 58.9967 32.6812C58.6107 32.9937 58.1454 33.2121 57.6004 33.3364ZM57.6777 31.0572C58.0411 30.9744 58.3417 30.8256 58.5797 30.6109C58.8257 30.3837 58.9924 30.1104 59.0801 29.7911C59.1751 29.4593 59.1807 29.1052 59.0961 28.7288C59.0094 28.3423 58.8534 28.025 58.6281 27.777C58.4127 27.5267 58.1467 27.3574 57.8301 27.2693C57.5214 27.1687 57.1851 27.1597 56.8221 27.2426C56.4587 27.3254 56.1594 27.4793 55.9234 27.7042C55.6874 27.9291 55.5257 28.2012 55.4384 28.5205C55.3611 28.8375 55.3647 29.1843 55.4491 29.5606C55.5334 29.937 55.6784 30.2515 55.8834 30.5041C56.0987 30.7544 56.3607 30.9299 56.6697 31.0305C56.9787 31.1311 57.3147 31.14 57.6777 31.0572Z" fill="#27104A"/>
<path d="M1.41797 3.6588L52.0824 3.2959L52.2364 25.1453L1.57191 25.5082L1.41797 3.6588Z" fill="#9AF6C1"/>
<path d="M7.76541 15.727C7.76047 15.0283 7.93714 14.4117 8.29541 13.8772C8.65361 13.3323 9.14711 12.9064 9.77591 12.5994C10.415 12.2819 11.1431 12.1203 11.9602 12.1144C12.7877 12.1085 13.5024 12.2494 14.1044 12.5371C14.7063 12.8248 15.1695 13.2335 15.4939 13.7631C15.8286 14.2926 15.9986 14.9224 16.0037 15.6524L13.5058 15.6703C13.5029 15.2636 13.3611 14.9465 13.0802 14.719C12.7992 14.4812 12.4209 14.3639 11.9451 14.3674C11.4382 14.371 11.0304 14.4834 10.7217 14.7046C10.4233 14.9258 10.2754 15.2293 10.2782 15.6152C10.2806 15.9698 10.3756 16.2403 10.5632 16.4267C10.7507 16.6131 11.0464 16.7465 11.4504 16.8271L13.1751 17.1745C14.2005 17.3758 14.9633 17.7354 15.4635 18.2533C15.9636 18.7607 16.2168 19.4733 16.2233 20.3911C16.2285 21.1316 16.0521 21.7847 15.6941 22.3504C15.3359 22.9057 14.8269 23.337 14.1671 23.6442C13.5176 23.9513 12.7533 24.108 11.8741 24.1143C11.0259 24.1204 10.2802 23.9797 9.63684 23.6923C9.00384 23.4048 8.50964 22.9964 8.15424 22.467C7.80907 21.9271 7.63397 21.2974 7.62891 20.5778L10.1268 20.5599C10.1297 20.9771 10.282 21.2993 10.5836 21.5266C10.8851 21.7539 11.3152 21.8655 11.8737 21.8615C12.4426 21.8575 12.8918 21.7499 13.2213 21.539C13.5508 21.3176 13.7142 21.0244 13.7116 20.6594C13.7094 20.3361 13.6248 20.0864 13.4581 19.9103C13.3017 19.7341 13.0319 19.6109 12.6487 19.5406L10.893 19.1934C9.86751 18.9921 9.08897 18.6013 8.55734 18.0211C8.03607 17.4408 7.77207 16.6761 7.76541 15.727Z" fill="#27104A"/>
<path d="M22.705 16.0122L25.0943 15.9951L25.1494 23.8169L22.8997 23.833L22.7384 22.9581C22.5028 23.2831 22.1633 23.5463 21.7199 23.7476C21.2869 23.9489 20.8377 24.0512 20.3722 24.0545C19.4931 24.0608 18.7929 23.7894 18.2719 23.2404C17.7611 22.6809 17.5023 21.9214 17.4956 20.9619L17.4609 16.0498L19.8503 16.0327L19.8787 20.0687C19.8832 20.7049 20.0003 21.1734 20.2299 21.4742C20.4595 21.7646 20.8174 21.908 21.3036 21.9046C21.8207 21.9009 22.1869 21.7574 22.4021 21.4743C22.6276 21.1807 22.7381 20.7157 22.7337 20.0796L22.705 16.0122Z" fill="#27104A"/>
<path d="M26.9722 27.559L26.8906 15.9827L29.1403 15.9666L29.2711 16.9199C29.4858 16.5534 29.8199 16.259 30.2734 16.0367C30.727 15.8144 31.2279 15.7013 31.7761 15.6974C32.5001 15.6922 33.1374 15.8493 33.6879 16.1687C34.2383 16.4881 34.6709 16.9491 34.9853 17.5517C35.2999 18.144 35.4599 18.8625 35.4659 19.7072C35.4719 20.5311 35.3323 21.2674 35.0473 21.9161C34.7723 22.5542 34.3623 23.0578 33.8166 23.4268C33.2813 23.7956 32.6257 23.9829 31.85 23.9884C31.3121 23.9922 30.815 23.902 30.3586 23.7175C29.9022 23.533 29.5591 23.2956 29.3295 23.0052L29.3615 27.5419L26.9722 27.559ZM29.323 19.8764C29.3257 20.2623 29.4057 20.6059 29.563 20.9072C29.7305 21.198 29.9545 21.4259 30.235 21.5907C30.5257 21.7451 30.8572 21.8209 31.2296 21.8183C31.6123 21.8155 31.9375 21.7298 32.2053 21.561C32.4834 21.3921 32.6938 21.1612 32.8365 20.8681C32.9896 20.575 33.0648 20.2355 33.0621 19.8496C33.0594 19.4637 32.9794 19.1253 32.8222 18.8344C32.6753 18.5435 32.4617 18.3155 32.1813 18.1507C31.9111 17.9857 31.5847 17.9046 31.202 17.9074C30.8297 17.9101 30.4993 17.9959 30.2108 18.1648C29.9327 18.3232 29.7119 18.549 29.5484 18.8422C29.3954 19.1354 29.3202 19.4801 29.323 19.8764Z" fill="#27104A"/>
<path d="M40.4694 23.9081C39.6937 23.9137 38.9994 23.7413 38.3867 23.3911C37.7844 23.0408 37.305 22.5593 36.949 21.9464C36.6034 21.3232 36.4277 20.61 36.422 19.807C36.4164 18.9935 36.5767 18.2779 36.9034 17.6602C37.2404 17.032 37.7074 16.5385 38.305 16.1796C38.9024 15.8207 39.589 15.6385 40.3647 15.633C41.1817 15.6271 41.8864 15.7942 42.4784 16.1341C43.0704 16.4636 43.5287 16.94 43.8537 17.5635C44.1787 18.1765 44.3444 18.9106 44.3504 19.7658L44.3547 20.3759L37.6834 20.455L37.704 18.9686L41.9707 18.9381C41.9677 18.5209 41.8257 18.1934 41.5447 17.9555C41.2637 17.7072 40.88 17.5848 40.394 17.5883C39.9907 17.5912 39.66 17.6718 39.4027 17.8301C39.1554 17.9883 38.971 18.2347 38.8494 18.5693C38.7274 18.8935 38.6684 19.3111 38.672 19.8221C38.677 20.5521 38.8257 21.0934 39.1177 21.446C39.4204 21.788 39.8817 21.9567 40.5024 21.9523C40.9574 21.949 41.3344 21.8681 41.6334 21.7095C41.932 21.551 42.122 21.3306 42.2027 21.0484L44.3904 21.0327C44.262 21.8993 43.8427 22.5959 43.1327 23.1225C42.4227 23.6386 41.535 23.9004 40.4694 23.9081Z" fill="#27104A"/>
<path d="M51.0753 15.8066L51.0913 18.075L50.3313 18.0804C49.6486 18.0853 49.1119 18.256 48.7209 18.5925C48.3406 18.929 48.1533 19.4831 48.1586 20.2549L48.1826 23.6495L45.7933 23.6667L45.7383 15.8605L47.9879 15.8444L48.1859 17.5169L47.9686 17.5185C48.0686 16.9963 48.2983 16.567 48.6579 16.2307C49.0279 15.8839 49.5283 15.7082 50.1593 15.7037C50.3039 15.7026 50.4489 15.712 50.5939 15.7319C50.7489 15.7412 50.9096 15.7661 51.0753 15.8066Z" fill="#27104A"/>
</svg>
