<svg width="26" height="26" viewBox="0 0 26 26" fill="none" xmlns="http://www.w3.org/2000/svg">
<path d="M11.246 1.7085C12.2221 0.757742 13.7779 0.757742 14.754 1.7085C15.3805 2.31871 16.2791 2.55948 17.1267 2.34426C18.4474 2.00893 19.7948 2.78686 20.1648 4.09829C20.4022 4.93998 21.06 5.59778 21.9017 5.83522C23.2131 6.20516 23.9911 7.55258 23.6557 8.87329C23.4405 9.72093 23.6813 10.6195 24.2915 11.246C25.2423 12.2221 25.2423 13.7779 24.2915 14.754C23.6813 15.3805 23.4405 16.2791 23.6557 17.1267C23.9911 18.4474 23.2131 19.7948 21.9017 20.1648C21.06 20.4022 20.4022 21.06 20.1648 21.9017C19.7948 23.2131 18.4474 23.9911 17.1267 23.6557C16.2791 23.4405 15.3805 23.6813 14.754 24.2915C13.7779 25.2423 12.2221 25.2423 11.246 24.2915C10.6195 23.6813 9.72093 23.4405 8.87329 23.6557C7.55258 23.9911 6.20516 23.2131 5.83522 21.9017C5.59778 21.06 4.93998 20.4022 4.09829 20.1648C2.78686 19.7948 2.00893 18.4474 2.34426 17.1267C2.55948 16.2791 2.31871 15.3805 1.7085 14.754C0.757742 13.7779 0.757742 12.2221 1.7085 11.246C2.31871 10.6195 2.55948 9.72093 2.34426 8.87329C2.00893 7.55258 2.78686 6.20516 4.09829 5.83522C4.93998 5.59778 5.59778 4.93998 5.83522 4.09829C6.20516 2.78686 7.55258 2.00893 8.87329 2.34426C9.72093 2.55948 10.6195 2.31871 11.246 1.7085Z" fill="url(#paint0_radial_0_924)"/>
<path d="M8.93213 8.32C9.71613 8.04 10.4955 7.9 11.2701 7.9C12.0448 7.9 12.6795 8.096 13.1741 8.488C13.6688 8.88 13.9161 9.37467 13.9161 9.972C13.9161 10.4387 13.7948 10.8493 13.5521 11.204C13.3095 11.5493 12.9641 11.8107 12.5161 11.988C13.1695 12.2307 13.6408 12.534 13.9301 12.898C14.2195 13.2527 14.3641 13.7053 14.3641 14.256C14.3641 15.096 14.0375 15.7913 13.3841 16.342C12.7401 16.8833 11.9188 17.154 10.9201 17.154C10.4441 17.154 9.97746 17.0933 9.52013 16.972C9.07213 16.8413 8.74079 16.7107 8.52613 16.58L8.20413 16.384L8.79213 14.69C8.87613 14.7647 8.98813 14.858 9.12813 14.97C9.26813 15.082 9.53413 15.236 9.92612 15.432C10.3275 15.6187 10.7288 15.712 11.1301 15.712C11.5315 15.712 11.8815 15.6047 12.1801 15.39C12.4788 15.166 12.6281 14.8533 12.6281 14.452C12.6281 14.0507 12.4508 13.7193 12.0961 13.458C11.7508 13.1967 11.2701 13.066 10.6541 13.066H9.45013L9.70213 11.708H10.4721C10.9855 11.708 11.3868 11.5913 11.6761 11.358C11.9655 11.1247 12.1101 10.826 12.1101 10.462C12.1101 10.098 11.9888 9.818 11.7461 9.622C11.5035 9.41667 11.2095 9.314 10.8641 9.314C10.5281 9.314 10.1781 9.37467 9.81413 9.496C9.45946 9.608 9.06746 9.78067 8.63813 10.014L8.93213 8.32ZM15.3341 16.062C15.3341 15.7633 15.4414 15.502 15.6561 15.278C15.8801 15.0447 16.1461 14.928 16.4541 14.928C17.0607 14.928 17.3641 15.236 17.3641 15.852C17.3641 16.2067 17.2521 16.5007 17.0281 16.734C16.8134 16.9673 16.5567 17.084 16.2581 17.084C15.9687 17.084 15.7401 16.9907 15.5721 16.804C15.4134 16.608 15.3341 16.3607 15.3341 16.062Z" fill="black"/>
<defs>
<radialGradient id="paint0_radial_0_924" cx="0" cy="0" r="1" gradientUnits="userSpaceOnUse" gradientTransform="translate(13 13) rotate(90) scale(13)">
<stop offset="0.318313" stop-color="#986B57"/>
<stop offset="1" stop-color="#715B38"/>
</radialGradient>
</defs>
</svg>
