<svg width="22" height="22" viewBox="0 0 22 22" fill="none" xmlns="http://www.w3.org/2000/svg">
    <path
        d="M11.001 21.002C16.5244 21.002 21.002 16.5244 21.002 11.001C21.002 5.47759 16.5244 1 11.001 1C5.47759 1 1 5.47759 1 11.001C1 16.5244 5.47759 21.002 11.001 21.002Z"
        fill="#D5EA57" stroke="black" stroke-width="0.400114" stroke-miterlimit="10" />
    <path
        d="M20.0921 10.6513C19.2904 11.7887 18.4439 10.5134 18.0934 9.98387C17.7429 9.45436 16.6876 9.17842 15.5204 8.8279C14.3533 8.47738 14.2302 6.28105 14.2302 6.28105C13.7007 6.01629 14.0214 5.48306 14.3011 5.16237C14.4647 4.96983 14.5464 4.72083 14.5285 4.46879C14.4763 3.80877 14.5957 2.69382 16.2327 3.8908C17.1358 4.5352 18.1457 5.01491 19.2158 5.3078C18.3522 4.05815 17.2147 3.02223 15.8899 2.27905C14.5651 1.53588 13.0881 1.10509 11.5715 1.01953C11.5491 1.69447 10.8257 2.60432 10.2999 2.5111C9.48331 2.3694 7.59647 2.82433 6.08998 3.28299C5.44861 3.47689 5.14657 3.28299 5.00487 2.99586C3.76083 3.92708 2.75109 5.13558 2.05588 6.52536C1.36066 7.91514 0.999131 9.4479 1 11.0019C1 11.0317 1 11.0615 1 11.0914C1.17774 11.3385 1.43071 11.5215 1.72109 11.6129C2.01147 11.7043 2.32363 11.6993 2.6109 11.5985C4.57604 11.0392 3.88992 13.2579 3.80415 13.4965C3.72078 13.6474 3.66916 13.8138 3.65247 13.9854C3.63579 14.1571 3.65439 14.3303 3.70713 14.4944C3.75987 14.6586 3.84564 14.8102 3.95916 14.94C4.07267 15.0698 4.21154 15.175 4.36722 15.2491C5.32556 15.8271 5.85879 17.2217 4.74011 18.799C6.21012 19.9803 7.98416 20.7219 9.85754 20.9382C11.7309 21.1545 13.6273 20.8368 15.3278 20.0216C17.0283 19.2064 18.4637 17.927 19.4684 16.3311C20.473 14.7352 21.006 12.8877 21.0057 11.0019C21.0047 10.5842 20.9773 10.1669 20.9237 9.75267C20.6052 10.0113 20.3252 10.3138 20.0921 10.6513ZM14.577 16.4424C14.0363 16.5207 14.0363 16.1552 14.0363 16.1552C14.0363 16.1552 14.3272 14.2908 15.1177 14.2311C15.9082 14.1715 15.1177 16.3641 14.577 16.4424ZM15.1252 11.6693C15.1252 11.6693 13.3353 12.5456 13.6336 13.3213C13.9319 14.0969 13.5628 14.7569 13.037 14.8986C12.5112 15.0403 13.2122 15.4244 12.0376 16.5692C10.863 17.7139 9.68467 16.8861 9.58026 16.3939C9.47585 15.9017 9.50941 15.4095 9.22974 14.9881C8.95007 14.5667 9.44229 13.7613 9.22974 13.586C9.01719 13.4108 8.28259 12.3219 8.54735 11.8297C8.8121 11.3375 7.96564 11.3487 7.19375 11.1771C6.86765 11.1094 6.53004 11.1209 6.20931 11.2107C5.99674 11.2705 5.77227 11.2742 5.55787 11.2212C5.34347 11.1683 5.14649 11.0606 4.98622 10.9086C4.16586 10.092 4.27027 8.67129 5.35912 7.31769C6.73882 5.63221 8.17818 6.50105 8.17818 6.50105C8.17818 6.50105 8.92397 7.61973 10.6393 7.24684C12.3546 6.87394 12.7387 7.80991 12.7387 7.80991C13.0872 8.87923 13.7777 9.80427 14.7038 10.4425C16.2476 11.4941 15.1252 11.6693 15.1252 11.6693Z"
        fill="#548DEF" stroke="black" stroke-width="0.400114" stroke-miterlimit="10" />
</svg>
    