<svg width="26" height="26" viewBox="0 0 26 26" fill="none" xmlns="http://www.w3.org/2000/svg">
<path d="M11.246 1.7085C12.2221 0.757742 13.7779 0.757742 14.754 1.7085C15.3805 2.31871 16.2791 2.55948 17.1267 2.34426C18.4474 2.00893 19.7948 2.78686 20.1648 4.09829C20.4022 4.93998 21.06 5.59778 21.9017 5.83522C23.2131 6.20516 23.9911 7.55258 23.6557 8.87329C23.4405 9.72093 23.6813 10.6195 24.2915 11.246C25.2423 12.2221 25.2423 13.7779 24.2915 14.754C23.6813 15.3805 23.4405 16.2791 23.6557 17.1267C23.9911 18.4474 23.2131 19.7948 21.9017 20.1648C21.06 20.4022 20.4022 21.06 20.1648 21.9017C19.7948 23.2131 18.4474 23.9911 17.1267 23.6557C16.2791 23.4405 15.3805 23.6813 14.754 24.2915C13.7779 25.2423 12.2221 25.2423 11.246 24.2915C10.6195 23.6813 9.72093 23.4405 8.87329 23.6557C7.55258 23.9911 6.20516 23.2131 5.83522 21.9017C5.59778 21.06 4.93998 20.4022 4.09829 20.1648C2.78686 19.7948 2.00893 18.4474 2.34426 17.1267C2.55948 16.2791 2.31871 15.3805 1.7085 14.754C0.757742 13.7779 0.757742 12.2221 1.7085 11.246C2.31871 10.6195 2.55948 9.72093 2.34426 8.87329C2.00893 7.55258 2.78686 6.20516 4.09829 5.83522C4.93998 5.59778 5.59778 4.93998 5.83522 4.09829C6.20516 2.78686 7.55258 2.00893 8.87329 2.34426C9.72093 2.55948 10.6195 2.31871 11.246 1.7085Z" fill="url(#paint0_radial_0_892)"/>
<path d="M13.0681 7.9L12.8581 13.36L13.0261 17H11.0661L11.2341 13.598L11.1221 10.112L9.16213 10.126V9.216L13.0681 7.9ZM14.9395 16.062C14.9395 15.7633 15.0469 15.502 15.2615 15.278C15.4855 15.0447 15.7515 14.928 16.0595 14.928C16.6662 14.928 16.9695 15.236 16.9695 15.852C16.9695 16.2067 16.8575 16.5007 16.6335 16.734C16.4189 16.9673 16.1622 17.084 15.8635 17.084C15.5742 17.084 15.3455 16.9907 15.1775 16.804C15.0189 16.608 14.9395 16.3607 14.9395 16.062Z" fill="black"/>
<defs>
<radialGradient id="paint0_radial_0_892" cx="0" cy="0" r="1" gradientUnits="userSpaceOnUse" gradientTransform="translate(13 13) rotate(90) scale(13)">
<stop offset="0.318313" stop-color="#B08033"/>
<stop offset="1" stop-color="#DD921B"/>
</radialGradient>
</defs>
</svg>
