<svg width="26" height="26" viewBox="0 0 26 26" fill="none" xmlns="http://www.w3.org/2000/svg">
<path d="M11.246 1.7085C12.2221 0.757742 13.7779 0.757742 14.754 1.7085C15.3805 2.31871 16.2791 2.55948 17.1267 2.34426C18.4474 2.00893 19.7948 2.78686 20.1648 4.09829C20.4022 4.93998 21.06 5.59778 21.9017 5.83522C23.2131 6.20516 23.9911 7.55258 23.6557 8.87329C23.4405 9.72093 23.6813 10.6195 24.2915 11.246C25.2423 12.2221 25.2423 13.7779 24.2915 14.754C23.6813 15.3805 23.4405 16.2791 23.6557 17.1267C23.9911 18.4474 23.2131 19.7948 21.9017 20.1648C21.06 20.4022 20.4022 21.06 20.1648 21.9017C19.7948 23.2131 18.4474 23.9911 17.1267 23.6557C16.2791 23.4405 15.3805 23.6813 14.754 24.2915C13.7779 25.2423 12.2221 25.2423 11.246 24.2915C10.6195 23.6813 9.72093 23.4405 8.87329 23.6557C7.55258 23.9911 6.20516 23.2131 5.83522 21.9017C5.59778 21.06 4.93998 20.4022 4.09829 20.1648C2.78686 19.7948 2.00893 18.4474 2.34426 17.1267C2.55948 16.2791 2.31871 15.3805 1.7085 14.754C0.757742 13.7779 0.757742 12.2221 1.7085 11.246C2.31871 10.6195 2.55948 9.72093 2.34426 8.87329C2.00893 7.55258 2.78686 6.20516 4.09829 5.83522C4.93998 5.59778 5.59778 4.93998 5.83522 4.09829C6.20516 2.78686 7.55258 2.00893 8.87329 2.34426C9.72093 2.55948 10.6195 2.31871 11.246 1.7085Z" fill="url(#paint0_radial_0_908)"/>
<path d="M12.4321 10.462C12.4321 9.93933 12.1148 9.678 11.4801 9.678C11.0881 9.678 10.6541 9.762 10.1781 9.93C9.71146 10.0887 9.33813 10.252 9.05813 10.42L8.65213 10.658L9.03013 8.656C9.39413 8.46 9.83279 8.28733 10.3461 8.138C10.8595 7.97933 11.3121 7.9 11.7041 7.9C12.4975 7.9 13.1321 8.10533 13.6081 8.516C14.0935 8.91733 14.3361 9.454 14.3361 10.126C14.3361 11.0313 13.8601 11.974 12.9081 12.954L10.4721 15.474L14.8401 15.222L14.6021 17.084L11.6901 16.958L8.38613 17.056L8.61013 15.586L11.5501 12.198C12.1381 11.5353 12.4321 10.9567 12.4321 10.462ZM15.6212 16.062C15.6212 15.7633 15.7285 15.502 15.9432 15.278C16.1672 15.0447 16.4332 14.928 16.7412 14.928C17.3478 14.928 17.6512 15.236 17.6512 15.852C17.6512 16.2067 17.5392 16.5007 17.3152 16.734C17.1005 16.9673 16.8438 17.084 16.5452 17.084C16.2558 17.084 16.0272 16.9907 15.8592 16.804C15.7005 16.608 15.6212 16.3607 15.6212 16.062Z" fill="black"/>
<defs>
<radialGradient id="paint0_radial_0_908" cx="0" cy="0" r="1" gradientUnits="userSpaceOnUse" gradientTransform="translate(13 13) rotate(90) scale(13)">
<stop offset="0.318313" stop-color="#B3ACA1"/>
<stop offset="1" stop-color="#76736E"/>
</radialGradient>
</defs>
</svg>
